<svg height="3182" width="720" xmlns="http://www.w3.org/2000/svg">
<rect height="3182" fill="#555" width="720"></rect>
<text fill="#7f7" font-family="Courier New" font-size="12" xml:space="preserve">
<tspan x="10" y="26">22 megabytes installed</tspan>
<tspan x="10" y="42"></tspan>
<tspan x="10" y="58">node_modules</tspan>
<tspan x="10" y="74">└─┬ reveal-md@0.1.3 </tspan>
<tspan x="10" y="90">  ├── bluebird@3.5.0 </tspan>
<tspan x="10" y="106">  ├─┬ commander@2.9.0 </tspan>
<tspan x="10" y="122">  │ └── graceful-readlink@1.0.1 </tspan>
<tspan x="10" y="138">  ├─┬ express@4.14.1 </tspan>
<tspan x="10" y="154">  │ ├─┬ accepts@1.3.3 </tspan>
<tspan x="10" y="170">  │ │ ├─┬ mime-types@2.1.15 </tspan>
<tspan x="10" y="186">  │ │ │ └── mime-db@1.27.0 </tspan>
<tspan x="10" y="202">  │ │ └── negotiator@0.6.1 </tspan>
<tspan x="10" y="218">  │ ├── array-flatten@1.1.1 </tspan>
<tspan x="10" y="234">  │ ├── content-disposition@0.5.2 </tspan>
<tspan x="10" y="250">  │ ├── content-type@1.0.2 </tspan>
<tspan x="10" y="266">  │ ├── cookie@0.3.1 </tspan>
<tspan x="10" y="282">  │ ├── cookie-signature@1.0.6 </tspan>
<tspan x="10" y="298">  │ ├─┬ debug@2.2.0 </tspan>
<tspan x="10" y="314">  │ │ └── ms@0.7.1 </tspan>
<tspan x="10" y="330">  │ ├── depd@1.1.0 </tspan>
<tspan x="10" y="346">  │ ├── encodeurl@1.0.1 </tspan>
<tspan x="10" y="362">  │ ├── escape-html@1.0.3 </tspan>
<tspan x="10" y="378">  │ ├── etag@1.7.0 </tspan>
<tspan x="10" y="394">  │ ├─┬ finalhandler@0.5.1 </tspan>
<tspan x="10" y="410">  │ │ ├── statuses@1.3.1 </tspan>
<tspan x="10" y="426">  │ │ └── unpipe@1.0.0 </tspan>
<tspan x="10" y="442">  │ ├── fresh@0.3.0 </tspan>
<tspan x="10" y="458">  │ ├── merge-descriptors@1.0.1 </tspan>
<tspan x="10" y="474">  │ ├── methods@1.1.2 </tspan>
<tspan x="10" y="490">  │ ├─┬ on-finished@2.3.0 </tspan>
<tspan x="10" y="506">  │ │ └── ee-first@1.1.1 </tspan>
<tspan x="10" y="522">  │ ├── parseurl@1.3.1 </tspan>
<tspan x="10" y="538">  │ ├── path-to-regexp@0.1.7 </tspan>
<tspan x="10" y="554">  │ ├─┬ proxy-addr@1.1.4 </tspan>
<tspan x="10" y="570">  │ │ ├── forwarded@0.1.0 </tspan>
<tspan x="10" y="586">  │ │ └── ipaddr.js@1.3.0 </tspan>
<tspan x="10" y="602">  │ ├── qs@6.2.0 </tspan>
<tspan x="10" y="618">  │ ├── range-parser@1.2.0 </tspan>
<tspan x="10" y="634">  │ ├─┬ send@0.14.2 </tspan>
<tspan x="10" y="650">  │ │ ├── destroy@1.0.4 </tspan>
<tspan x="10" y="666">  │ │ ├─┬ http-errors@1.5.1 </tspan>
<tspan x="10" y="682">  │ │ │ └── setprototypeof@1.0.2 </tspan>
<tspan x="10" y="698">  │ │ ├── mime@1.3.4 </tspan>
<tspan x="10" y="714">  │ │ └── ms@0.7.2 </tspan>
<tspan x="10" y="730">  │ ├── serve-static@1.11.2 </tspan>
<tspan x="10" y="746">  │ ├─┬ type-is@1.6.15 </tspan>
<tspan x="10" y="762">  │ │ └── media-typer@0.3.0 </tspan>
<tspan x="10" y="778">  │ ├── utils-merge@1.0.0 </tspan>
<tspan x="10" y="794">  │ └── vary@1.1.1 </tspan>
<tspan x="10" y="810">  ├─┬ fs-extra@2.1.2 </tspan>
<tspan x="10" y="826">  │ ├── graceful-fs@4.1.11 </tspan>
<tspan x="10" y="842">  │ └── jsonfile@2.4.0 </tspan>
<tspan x="10" y="858">  ├─┬ glob@7.1.1 </tspan>
<tspan x="10" y="874">  │ ├── fs.realpath@1.0.0 </tspan>
<tspan x="10" y="890">  │ ├─┬ inflight@1.0.6 </tspan>
<tspan x="10" y="906">  │ │ └── wrappy@1.0.2 </tspan>
<tspan x="10" y="922">  │ ├── inherits@2.0.3 </tspan>
<tspan x="10" y="938">  │ ├─┬ minimatch@3.0.3 </tspan>
<tspan x="10" y="954">  │ │ └─┬ brace-expansion@1.1.7 </tspan>
<tspan x="10" y="970">  │ │   ├── balanced-match@0.4.2 </tspan>
<tspan x="10" y="986">  │ │   └── concat-map@0.0.1 </tspan>
<tspan x="10" y="1002">  │ ├── once@1.4.0 </tspan>
<tspan x="10" y="1018">  │ └── path-is-absolute@1.0.1 </tspan>
<tspan x="10" y="1034">  ├─┬ got@6.7.1 </tspan>
<tspan x="10" y="1050">  │ ├─┬ create-error-class@3.0.2 </tspan>
<tspan x="10" y="1066">  │ │ └── capture-stack-trace@1.0.0 </tspan>
<tspan x="10" y="1082">  │ ├── duplexer3@0.1.4 </tspan>
<tspan x="10" y="1098">  │ ├── get-stream@3.0.0 </tspan>
<tspan x="10" y="1114">  │ ├── is-redirect@1.0.0 </tspan>
<tspan x="10" y="1130">  │ ├── is-retry-allowed@1.1.0 </tspan>
<tspan x="10" y="1146">  │ ├── is-stream@1.1.0 </tspan>
<tspan x="10" y="1162">  │ ├── lowercase-keys@1.0.0 </tspan>
<tspan x="10" y="1178">  │ ├── safe-buffer@5.0.1 </tspan>
<tspan x="10" y="1194">  │ ├── timed-out@4.0.1 </tspan>
<tspan x="10" y="1210">  │ ├── unzip-response@2.0.1 </tspan>
<tspan x="10" y="1226">  │ └─┬ url-parse-lax@1.0.0 </tspan>
<tspan x="10" y="1242">  │   └── prepend-http@1.0.4 </tspan>
<tspan x="10" y="1258">  ├── highlight.js@9.9.0 </tspan>
<tspan x="10" y="1274">  ├─┬ livereload@0.6.2 </tspan>
<tspan x="10" y="1290">  │ ├─┬ chokidar@1.6.1 </tspan>
<tspan x="10" y="1306">  │ │ ├─┬ anymatch@1.3.0 </tspan>
<tspan x="10" y="1322">  │ │ │ ├── arrify@1.0.1 </tspan>
<tspan x="10" y="1338">  │ │ │ └─┬ micromatch@2.3.11 </tspan>
<tspan x="10" y="1354">  │ │ │   ├─┬ arr-diff@2.0.0 </tspan>
<tspan x="10" y="1370">  │ │ │   │ └── arr-flatten@1.0.3 </tspan>
<tspan x="10" y="1386">  │ │ │   ├── array-unique@0.2.1 </tspan>
<tspan x="10" y="1402">  │ │ │   ├─┬ braces@1.8.5 </tspan>
<tspan x="10" y="1418">  │ │ │   │ ├─┬ expand-range@1.8.2 </tspan>
<tspan x="10" y="1434">  │ │ │   │ │ └─┬ fill-range@2.2.3 </tspan>
<tspan x="10" y="1450">  │ │ │   │ │   ├── is-number@2.1.0 </tspan>
<tspan x="10" y="1466">  │ │ │   │ │   ├── isobject@2.1.0 </tspan>
<tspan x="10" y="1482">  │ │ │   │ │   ├── randomatic@1.1.6 </tspan>
<tspan x="10" y="1498">  │ │ │   │ │   └── repeat-string@1.6.1 </tspan>
<tspan x="10" y="1514">  │ │ │   │ ├── preserve@0.2.0 </tspan>
<tspan x="10" y="1530">  │ │ │   │ └── repeat-element@1.1.2 </tspan>
<tspan x="10" y="1546">  │ │ │   ├─┬ expand-brackets@0.1.5 </tspan>
<tspan x="10" y="1562">  │ │ │   │ └── is-posix-bracket@0.1.1 </tspan>
<tspan x="10" y="1578">  │ │ │   ├── extglob@0.3.2 </tspan>
<tspan x="10" y="1594">  │ │ │   ├── filename-regex@2.0.0 </tspan>
<tspan x="10" y="1610">  │ │ │   ├─┬ kind-of@3.1.0 </tspan>
<tspan x="10" y="1626">  │ │ │   │ └── is-buffer@1.1.5 </tspan>
<tspan x="10" y="1642">  │ │ │   ├─┬ normalize-path@2.1.1 </tspan>
<tspan x="10" y="1658">  │ │ │   │ └── remove-trailing-separator@1.0.1 </tspan>
<tspan x="10" y="1674">  │ │ │   ├─┬ object.omit@2.0.1 </tspan>
<tspan x="10" y="1690">  │ │ │   │ ├─┬ for-own@0.1.5 </tspan>
<tspan x="10" y="1706">  │ │ │   │ │ └── for-in@1.0.2 </tspan>
<tspan x="10" y="1722">  │ │ │   │ └── is-extendable@0.1.1 </tspan>
<tspan x="10" y="1738">  │ │ │   ├─┬ parse-glob@3.0.4 </tspan>
<tspan x="10" y="1754">  │ │ │   │ ├── glob-base@0.3.0 </tspan>
<tspan x="10" y="1770">  │ │ │   │ └── is-dotfile@1.0.2 </tspan>
<tspan x="10" y="1786">  │ │ │   └─┬ regex-cache@0.4.3 </tspan>
<tspan x="10" y="1802">  │ │ │     ├── is-equal-shallow@0.1.3 </tspan>
<tspan x="10" y="1818">  │ │ │     └── is-primitive@2.0.0 </tspan>
<tspan x="10" y="1834">  │ │ ├── async-each@1.0.1 </tspan>
<tspan x="10" y="1850">  │ │ ├── glob-parent@2.0.0 </tspan>
<tspan x="10" y="1866">  │ │ ├─┬ is-binary-path@1.0.1 </tspan>
<tspan x="10" y="1882">  │ │ │ └── binary-extensions@1.8.0 </tspan>
<tspan x="10" y="1898">  │ │ ├─┬ is-glob@2.0.1 </tspan>
<tspan x="10" y="1914">  │ │ │ └── is-extglob@1.0.0 </tspan>
<tspan x="10" y="1930">  │ │ └─┬ readdirp@2.1.0 </tspan>
<tspan x="10" y="1946">  │ │   ├─┬ readable-stream@2.2.9 </tspan>
<tspan x="10" y="1962">  │ │   │ ├── buffer-shims@1.0.0 </tspan>
<tspan x="10" y="1978">  │ │   │ ├── core-util-is@1.0.2 </tspan>
<tspan x="10" y="1994">  │ │   │ ├── isarray@1.0.0 </tspan>
<tspan x="10" y="2010">  │ │   │ ├── process-nextick-args@1.0.7 </tspan>
<tspan x="10" y="2026">  │ │   │ ├── string_decoder@1.0.0 </tspan>
<tspan x="10" y="2042">  │ │   │ └── util-deprecate@1.0.2 </tspan>
<tspan x="10" y="2058">  │ │   └── set-immediate-shim@1.0.1 </tspan>
<tspan x="10" y="2074">  │ ├── opts@1.2.6 </tspan>
<tspan x="10" y="2090">  │ └─┬ ws@1.1.4 </tspan>
<tspan x="10" y="2106">  │   ├── options@0.0.6 </tspan>
<tspan x="10" y="2122">  │   └── ultron@1.0.2 </tspan>
<tspan x="10" y="2138">  ├── lodash@4.17.4 </tspan>
<tspan x="10" y="2154">  ├── mustache@2.3.0 </tspan>
<tspan x="10" y="2170">  ├── open@0.0.5 </tspan>
<tspan x="10" y="2186">  ├─┬ reveal.js@3.4.1 </tspan>
<tspan x="10" y="2202">  │ ├─┬ grunt-cli@1.2.0 </tspan>
<tspan x="10" y="2218">  │ │ ├─┬ findup-sync@0.3.0 </tspan>
<tspan x="10" y="2234">  │ │ │ └── glob@5.0.15 </tspan>
<tspan x="10" y="2250">  │ │ ├── grunt-known-options@1.1.0 </tspan>
<tspan x="10" y="2266">  │ │ ├─┬ nopt@3.0.6 </tspan>
<tspan x="10" y="2282">  │ │ │ └── abbrev@1.1.0 </tspan>
<tspan x="10" y="2298">  │ │ └── resolve@1.1.7 </tspan>
<tspan x="10" y="2314">  │ ├── mustache@2.2.1 </tspan>
<tspan x="10" y="2330">  │ └─┬ socket.io@1.7.3 </tspan>
<tspan x="10" y="2346">  │   ├─┬ debug@2.3.3 </tspan>
<tspan x="10" y="2362">  │   │ └── ms@0.7.2 </tspan>
<tspan x="10" y="2378">  │   ├─┬ engine.io@1.8.3 </tspan>
<tspan x="10" y="2394">  │   │ ├── base64id@1.0.0 </tspan>
<tspan x="10" y="2410">  │   │ ├─┬ debug@2.3.3 </tspan>
<tspan x="10" y="2426">  │   │ │ └── ms@0.7.2 </tspan>
<tspan x="10" y="2442">  │   │ ├─┬ engine.io-parser@1.3.2 </tspan>
<tspan x="10" y="2458">  │   │ │ ├── after@0.8.2 </tspan>
<tspan x="10" y="2474">  │   │ │ ├── arraybuffer.slice@0.0.6 </tspan>
<tspan x="10" y="2490">  │   │ │ ├── base64-arraybuffer@0.1.5 </tspan>
<tspan x="10" y="2506">  │   │ │ ├── blob@0.0.4 </tspan>
<tspan x="10" y="2522">  │   │ │ └── wtf-8@1.0.0 </tspan>
<tspan x="10" y="2538">  │   │ └── ws@1.1.2 </tspan>
<tspan x="10" y="2554">  │   ├─┬ has-binary@0.1.7 </tspan>
<tspan x="10" y="2570">  │   │ └── isarray@0.0.1 </tspan>
<tspan x="10" y="2586">  │   ├── object-assign@4.1.0 </tspan>
<tspan x="10" y="2602">  │   ├─┬ socket.io-adapter@0.5.0 </tspan>
<tspan x="10" y="2618">  │   │ └─┬ debug@2.3.3 </tspan>
<tspan x="10" y="2634">  │   │   └── ms@0.7.2 </tspan>
<tspan x="10" y="2650">  │   ├─┬ socket.io-client@1.7.3 </tspan>
<tspan x="10" y="2666">  │   │ ├── backo2@1.0.2 </tspan>
<tspan x="10" y="2682">  │   │ ├── component-bind@1.0.0 </tspan>
<tspan x="10" y="2698">  │   │ ├── component-emitter@1.2.1 </tspan>
<tspan x="10" y="2714">  │   │ ├─┬ debug@2.3.3 </tspan>
<tspan x="10" y="2730">  │   │ │ └── ms@0.7.2 </tspan>
<tspan x="10" y="2746">  │   │ ├─┬ engine.io-client@1.8.3 </tspan>
<tspan x="10" y="2762">  │   │ │ ├── component-emitter@1.2.1 </tspan>
<tspan x="10" y="2778">  │   │ │ ├── component-inherit@0.0.3 </tspan>
<tspan x="10" y="2794">  │   │ │ ├─┬ debug@2.3.3 </tspan>
<tspan x="10" y="2810">  │   │ │ │ └── ms@0.7.2 </tspan>
<tspan x="10" y="2826">  │   │ │ ├── has-cors@1.1.0 </tspan>
<tspan x="10" y="2842">  │   │ │ ├── parsejson@0.0.3 </tspan>
<tspan x="10" y="2858">  │   │ │ ├── parseqs@0.0.5 </tspan>
<tspan x="10" y="2874">  │   │ │ ├── ws@1.1.2 </tspan>
<tspan x="10" y="2890">  │   │ │ ├── xmlhttprequest-ssl@1.5.3 </tspan>
<tspan x="10" y="2906">  │   │ │ └── yeast@0.1.2 </tspan>
<tspan x="10" y="2922">  │   │ ├── indexof@0.0.1 </tspan>
<tspan x="10" y="2938">  │   │ ├── object-component@0.0.3 </tspan>
<tspan x="10" y="2954">  │   │ ├─┬ parseuri@0.0.5 </tspan>
<tspan x="10" y="2970">  │   │ │ └─┬ better-assert@1.0.2 </tspan>
<tspan x="10" y="2986">  │   │ │   └── callsite@1.0.0 </tspan>
<tspan x="10" y="3002">  │   │ └── to-array@0.1.4 </tspan>
<tspan x="10" y="3018">  │   └─┬ socket.io-parser@2.3.1 </tspan>
<tspan x="10" y="3034">  │     ├── component-emitter@1.1.2 </tspan>
<tspan x="10" y="3050">  │     ├── isarray@0.0.1 </tspan>
<tspan x="10" y="3066">  │     └── json3@3.3.2 </tspan>
<tspan x="10" y="3082">  └─┬ yaml-front-matter@3.4.0 </tspan>
<tspan x="10" y="3098">    ├── commander@1.0.0 </tspan>
<tspan x="10" y="3114">    └─┬ js-yaml@3.8.3 </tspan>
<tspan x="10" y="3130">      ├─┬ argparse@1.0.9 </tspan>
<tspan x="10" y="3146">      │ └── sprintf-js@1.0.3 </tspan>
<tspan x="10" y="3162">      └── esprima@3.1.3</tspan>
</text>
</svg>
